M48
; DRILL file {KiCad (6.0.4-0)} date Tuesday, July 19, 2022 at 07:11:56 PM
; FORMAT={-:-/ absolute / inch / decimal}
; #@! TF.CreationDate,2022-07-19T19:11:56-04:00
; #@! TF.GenerationSoftware,Kicad,Pcbnew,(6.0.4-0)
; #@! TF.FileFunction,MixedPlating,1,2
FMAT,2
INCH
; #@! TA.AperFunction,Plated,PTH,ViaDrill
T1C0.0157
; #@! TA.AperFunction,Plated,PTH,ComponentDrill
T2C0.0276
; #@! TA.AperFunction,Plated,PTH,ComponentDrill
T3C0.0382
; #@! TA.AperFunction,NonPlated,NPTH,ComponentDrill
T4C0.1339
%
G90
G05
T1
X4.0327Y-2.6835
X4.078Y-3.707
X4.0783Y-3.1063
X4.124Y-3.466
X4.1815Y-2.7866
X4.2685Y-3.0378
X4.2945Y-3.8138
X4.3217Y-2.463
X4.324Y-2.7047
X4.3425Y-2.8051
X4.5425Y-3.5512
X4.6783Y-3.1118
X4.6862Y-3.0299
X4.7472Y-3.2366
X4.761Y-3.8205
X4.7681Y-2.887
X4.7839Y-2.7047
X4.9413Y-2.6811
X5.0122Y-3.2079
X5.0173Y-2.8299
T2
X4.4272Y-2.58
X4.5276Y-2.4816
X4.628Y-2.58
T3
X4.2152Y-3.5085
X4.3526Y-3.4116
X4.4026Y-3.3116
X4.4526Y-3.4116
X4.5026Y-3.3116
X4.5526Y-3.4116
X4.6026Y-3.3116
X4.6526Y-3.4116
X4.7026Y-3.3116
X4.84Y-3.5085
T4
X4.3026Y-3.6616
X4.7526Y-3.6616
T0
M30
