%TF.GenerationSoftware,KiCad,Pcbnew,(6.0.4-0)*%
%TF.CreationDate,2022-07-19T19:10:53-04:00*%
%TF.ProjectId,PhotodiodeTIAVoltageReg,50686f74-6f64-4696-9f64-65544941566f,v01*%
%TF.SameCoordinates,Original*%
%TF.FileFunction,Legend,Bot*%
%TF.FilePolarity,Positive*%
%FSLAX46Y46*%
G04 Gerber Fmt 4.6, Leading zero omitted, Abs format (unit mm)*
G04 Created by KiCad (PCBNEW (6.0.4-0)) date 2022-07-19 19:10:53*
%MOMM*%
%LPD*%
G01*
G04 APERTURE LIST*
%ADD10C,0.150000*%
%ADD11C,0.100000*%
G04 APERTURE END LIST*
D10*
%TO.C,U1*%
X115761904Y-59904380D02*
X115761904Y-60713904D01*
X115714285Y-60809142D01*
X115666666Y-60856761D01*
X115571428Y-60904380D01*
X115380952Y-60904380D01*
X115285714Y-60856761D01*
X115238095Y-60809142D01*
X115190476Y-60713904D01*
X115190476Y-59904380D01*
X114190476Y-60904380D02*
X114761904Y-60904380D01*
X114476190Y-60904380D02*
X114476190Y-59904380D01*
X114571428Y-60047238D01*
X114666666Y-60142476D01*
X114761904Y-60190095D01*
D11*
X112241428Y-67393904D02*
X112698571Y-67393904D01*
X112470000Y-67393904D02*
X112470000Y-66593904D01*
X112546190Y-66708190D01*
X112622380Y-66784380D01*
X112698571Y-66822476D01*
X115238571Y-64130095D02*
X115200476Y-64092000D01*
X115124285Y-64053904D01*
X114933809Y-64053904D01*
X114857619Y-64092000D01*
X114819523Y-64130095D01*
X114781428Y-64206285D01*
X114781428Y-64282476D01*
X114819523Y-64396761D01*
X115276666Y-64853904D01*
X114781428Y-64853904D01*
X117816666Y-66593904D02*
X117321428Y-66593904D01*
X117588095Y-66898666D01*
X117473809Y-66898666D01*
X117397619Y-66936761D01*
X117359523Y-66974857D01*
X117321428Y-67051047D01*
X117321428Y-67241523D01*
X117359523Y-67317714D01*
X117397619Y-67355809D01*
X117473809Y-67393904D01*
X117702380Y-67393904D01*
X117778571Y-67355809D01*
X117816666Y-67317714D01*
%TD*%
M02*
