%TF.GenerationSoftware,KiCad,Pcbnew,(5.1.10-1-10_14)*%
%TF.CreationDate,2021-11-09T17:04:18-05:00*%
%TF.ProjectId,TeensyBoardv2,5465656e-7379-4426-9f61-726476322e6b,v01*%
%TF.SameCoordinates,Original*%
%TF.FileFunction,Soldermask,Top*%
%TF.FilePolarity,Negative*%
%FSLAX46Y46*%
G04 Gerber Fmt 4.6, Leading zero omitted, Abs format (unit mm)*
G04 Created by KiCad (PCBNEW (5.1.10-1-10_14)) date 2021-11-09 17:04:18*
%MOMM*%
%LPD*%
G01*
G04 APERTURE LIST*
%ADD10C,1.478000*%
%ADD11C,3.400000*%
%ADD12C,2.200000*%
%ADD13C,1.300000*%
%ADD14C,1.600000*%
%ADD15R,1.300000X1.300000*%
%ADD16R,1.600000X1.600000*%
%ADD17R,2.200000X2.200000*%
%ADD18O,2.200000X2.200000*%
%ADD19R,1.230000X1.710000*%
%ADD20C,1.498600*%
%ADD21C,3.500000*%
%ADD22C,2.400000*%
%ADD23O,1.905000X2.000000*%
%ADD24R,1.905000X2.000000*%
%ADD25O,6.500000X6.500000*%
G04 APERTURE END LIST*
%TO.C,R14*%
G36*
G01*
X241675000Y-115455000D02*
X241125000Y-115455000D01*
G75*
G02*
X240925000Y-115255000I0J200000D01*
G01*
X240925000Y-114855000D01*
G75*
G02*
X241125000Y-114655000I200000J0D01*
G01*
X241675000Y-114655000D01*
G75*
G02*
X241875000Y-114855000I0J-200000D01*
G01*
X241875000Y-115255000D01*
G75*
G02*
X241675000Y-115455000I-200000J0D01*
G01*
G37*
G36*
G01*
X241675000Y-117105000D02*
X241125000Y-117105000D01*
G75*
G02*
X240925000Y-116905000I0J200000D01*
G01*
X240925000Y-116505000D01*
G75*
G02*
X241125000Y-116305000I200000J0D01*
G01*
X241675000Y-116305000D01*
G75*
G02*
X241875000Y-116505000I0J-200000D01*
G01*
X241875000Y-116905000D01*
G75*
G02*
X241675000Y-117105000I-200000J0D01*
G01*
G37*
%TD*%
%TO.C,R21*%
G36*
G01*
X225545000Y-101065000D02*
X224995000Y-101065000D01*
G75*
G02*
X224795000Y-100865000I0J200000D01*
G01*
X224795000Y-100465000D01*
G75*
G02*
X224995000Y-100265000I200000J0D01*
G01*
X225545000Y-100265000D01*
G75*
G02*
X225745000Y-100465000I0J-200000D01*
G01*
X225745000Y-100865000D01*
G75*
G02*
X225545000Y-101065000I-200000J0D01*
G01*
G37*
G36*
G01*
X225545000Y-102715000D02*
X224995000Y-102715000D01*
G75*
G02*
X224795000Y-102515000I0J200000D01*
G01*
X224795000Y-102115000D01*
G75*
G02*
X224995000Y-101915000I200000J0D01*
G01*
X225545000Y-101915000D01*
G75*
G02*
X225745000Y-102115000I0J-200000D01*
G01*
X225745000Y-102515000D01*
G75*
G02*
X225545000Y-102715000I-200000J0D01*
G01*
G37*
%TD*%
%TO.C,R22*%
G36*
G01*
X229145000Y-101025000D02*
X228595000Y-101025000D01*
G75*
G02*
X228395000Y-100825000I0J200000D01*
G01*
X228395000Y-100425000D01*
G75*
G02*
X228595000Y-100225000I200000J0D01*
G01*
X229145000Y-100225000D01*
G75*
G02*
X229345000Y-100425000I0J-200000D01*
G01*
X229345000Y-100825000D01*
G75*
G02*
X229145000Y-101025000I-200000J0D01*
G01*
G37*
G36*
G01*
X229145000Y-102675000D02*
X228595000Y-102675000D01*
G75*
G02*
X228395000Y-102475000I0J200000D01*
G01*
X228395000Y-102075000D01*
G75*
G02*
X228595000Y-101875000I200000J0D01*
G01*
X229145000Y-101875000D01*
G75*
G02*
X229345000Y-102075000I0J-200000D01*
G01*
X229345000Y-102475000D01*
G75*
G02*
X229145000Y-102675000I-200000J0D01*
G01*
G37*
%TD*%
%TO.C,R24*%
G36*
G01*
X234275000Y-101005000D02*
X233725000Y-101005000D01*
G75*
G02*
X233525000Y-100805000I0J200000D01*
G01*
X233525000Y-100405000D01*
G75*
G02*
X233725000Y-100205000I200000J0D01*
G01*
X234275000Y-100205000D01*
G75*
G02*
X234475000Y-100405000I0J-200000D01*
G01*
X234475000Y-100805000D01*
G75*
G02*
X234275000Y-101005000I-200000J0D01*
G01*
G37*
G36*
G01*
X234275000Y-102655000D02*
X233725000Y-102655000D01*
G75*
G02*
X233525000Y-102455000I0J200000D01*
G01*
X233525000Y-102055000D01*
G75*
G02*
X233725000Y-101855000I200000J0D01*
G01*
X234275000Y-101855000D01*
G75*
G02*
X234475000Y-102055000I0J-200000D01*
G01*
X234475000Y-102455000D01*
G75*
G02*
X234275000Y-102655000I-200000J0D01*
G01*
G37*
%TD*%
%TO.C,R28*%
G36*
G01*
X249475000Y-101125000D02*
X248925000Y-101125000D01*
G75*
G02*
X248725000Y-100925000I0J200000D01*
G01*
X248725000Y-100525000D01*
G75*
G02*
X248925000Y-100325000I200000J0D01*
G01*
X249475000Y-100325000D01*
G75*
G02*
X249675000Y-100525000I0J-200000D01*
G01*
X249675000Y-100925000D01*
G75*
G02*
X249475000Y-101125000I-200000J0D01*
G01*
G37*
G36*
G01*
X249475000Y-102775000D02*
X248925000Y-102775000D01*
G75*
G02*
X248725000Y-102575000I0J200000D01*
G01*
X248725000Y-102175000D01*
G75*
G02*
X248925000Y-101975000I200000J0D01*
G01*
X249475000Y-101975000D01*
G75*
G02*
X249675000Y-102175000I0J-200000D01*
G01*
X249675000Y-102575000D01*
G75*
G02*
X249475000Y-102775000I-200000J0D01*
G01*
G37*
%TD*%
%TO.C,R27*%
G36*
G01*
X241755000Y-101045000D02*
X241205000Y-101045000D01*
G75*
G02*
X241005000Y-100845000I0J200000D01*
G01*
X241005000Y-100445000D01*
G75*
G02*
X241205000Y-100245000I200000J0D01*
G01*
X241755000Y-100245000D01*
G75*
G02*
X241955000Y-100445000I0J-200000D01*
G01*
X241955000Y-100845000D01*
G75*
G02*
X241755000Y-101045000I-200000J0D01*
G01*
G37*
G36*
G01*
X241755000Y-102695000D02*
X241205000Y-102695000D01*
G75*
G02*
X241005000Y-102495000I0J200000D01*
G01*
X241005000Y-102095000D01*
G75*
G02*
X241205000Y-101895000I200000J0D01*
G01*
X241755000Y-101895000D01*
G75*
G02*
X241955000Y-102095000I0J-200000D01*
G01*
X241955000Y-102495000D01*
G75*
G02*
X241755000Y-102695000I-200000J0D01*
G01*
G37*
%TD*%
%TO.C,R26*%
G36*
G01*
X239195000Y-101055000D02*
X238645000Y-101055000D01*
G75*
G02*
X238445000Y-100855000I0J200000D01*
G01*
X238445000Y-100455000D01*
G75*
G02*
X238645000Y-100255000I200000J0D01*
G01*
X239195000Y-100255000D01*
G75*
G02*
X239395000Y-100455000I0J-200000D01*
G01*
X239395000Y-100855000D01*
G75*
G02*
X239195000Y-101055000I-200000J0D01*
G01*
G37*
G36*
G01*
X239195000Y-102705000D02*
X238645000Y-102705000D01*
G75*
G02*
X238445000Y-102505000I0J200000D01*
G01*
X238445000Y-102105000D01*
G75*
G02*
X238645000Y-101905000I200000J0D01*
G01*
X239195000Y-101905000D01*
G75*
G02*
X239395000Y-102105000I0J-200000D01*
G01*
X239395000Y-102505000D01*
G75*
G02*
X239195000Y-102705000I-200000J0D01*
G01*
G37*
%TD*%
%TO.C,R25*%
G36*
G01*
X236795000Y-101005000D02*
X236245000Y-101005000D01*
G75*
G02*
X236045000Y-100805000I0J200000D01*
G01*
X236045000Y-100405000D01*
G75*
G02*
X236245000Y-100205000I200000J0D01*
G01*
X236795000Y-100205000D01*
G75*
G02*
X236995000Y-100405000I0J-200000D01*
G01*
X236995000Y-100805000D01*
G75*
G02*
X236795000Y-101005000I-200000J0D01*
G01*
G37*
G36*
G01*
X236795000Y-102655000D02*
X236245000Y-102655000D01*
G75*
G02*
X236045000Y-102455000I0J200000D01*
G01*
X236045000Y-102055000D01*
G75*
G02*
X236245000Y-101855000I200000J0D01*
G01*
X236795000Y-101855000D01*
G75*
G02*
X236995000Y-102055000I0J-200000D01*
G01*
X236995000Y-102455000D01*
G75*
G02*
X236795000Y-102655000I-200000J0D01*
G01*
G37*
%TD*%
%TO.C,R23*%
G36*
G01*
X231585000Y-101025000D02*
X231035000Y-101025000D01*
G75*
G02*
X230835000Y-100825000I0J200000D01*
G01*
X230835000Y-100425000D01*
G75*
G02*
X231035000Y-100225000I200000J0D01*
G01*
X231585000Y-100225000D01*
G75*
G02*
X231785000Y-100425000I0J-200000D01*
G01*
X231785000Y-100825000D01*
G75*
G02*
X231585000Y-101025000I-200000J0D01*
G01*
G37*
G36*
G01*
X231585000Y-102675000D02*
X231035000Y-102675000D01*
G75*
G02*
X230835000Y-102475000I0J200000D01*
G01*
X230835000Y-102075000D01*
G75*
G02*
X231035000Y-101875000I200000J0D01*
G01*
X231585000Y-101875000D01*
G75*
G02*
X231785000Y-102075000I0J-200000D01*
G01*
X231785000Y-102475000D01*
G75*
G02*
X231585000Y-102675000I-200000J0D01*
G01*
G37*
%TD*%
%TO.C,R20*%
G36*
G01*
X203555000Y-101075000D02*
X203005000Y-101075000D01*
G75*
G02*
X202805000Y-100875000I0J200000D01*
G01*
X202805000Y-100475000D01*
G75*
G02*
X203005000Y-100275000I200000J0D01*
G01*
X203555000Y-100275000D01*
G75*
G02*
X203755000Y-100475000I0J-200000D01*
G01*
X203755000Y-100875000D01*
G75*
G02*
X203555000Y-101075000I-200000J0D01*
G01*
G37*
G36*
G01*
X203555000Y-102725000D02*
X203005000Y-102725000D01*
G75*
G02*
X202805000Y-102525000I0J200000D01*
G01*
X202805000Y-102125000D01*
G75*
G02*
X203005000Y-101925000I200000J0D01*
G01*
X203555000Y-101925000D01*
G75*
G02*
X203755000Y-102125000I0J-200000D01*
G01*
X203755000Y-102525000D01*
G75*
G02*
X203555000Y-102725000I-200000J0D01*
G01*
G37*
%TD*%
%TO.C,R19*%
G36*
G01*
X200955000Y-100985000D02*
X200405000Y-100985000D01*
G75*
G02*
X200205000Y-100785000I0J200000D01*
G01*
X200205000Y-100385000D01*
G75*
G02*
X200405000Y-100185000I200000J0D01*
G01*
X200955000Y-100185000D01*
G75*
G02*
X201155000Y-100385000I0J-200000D01*
G01*
X201155000Y-100785000D01*
G75*
G02*
X200955000Y-100985000I-200000J0D01*
G01*
G37*
G36*
G01*
X200955000Y-102635000D02*
X200405000Y-102635000D01*
G75*
G02*
X200205000Y-102435000I0J200000D01*
G01*
X200205000Y-102035000D01*
G75*
G02*
X200405000Y-101835000I200000J0D01*
G01*
X200955000Y-101835000D01*
G75*
G02*
X201155000Y-102035000I0J-200000D01*
G01*
X201155000Y-102435000D01*
G75*
G02*
X200955000Y-102635000I-200000J0D01*
G01*
G37*
%TD*%
%TO.C,R18*%
G36*
G01*
X198805000Y-101035000D02*
X198255000Y-101035000D01*
G75*
G02*
X198055000Y-100835000I0J200000D01*
G01*
X198055000Y-100435000D01*
G75*
G02*
X198255000Y-100235000I200000J0D01*
G01*
X198805000Y-100235000D01*
G75*
G02*
X199005000Y-100435000I0J-200000D01*
G01*
X199005000Y-100835000D01*
G75*
G02*
X198805000Y-101035000I-200000J0D01*
G01*
G37*
G36*
G01*
X198805000Y-102685000D02*
X198255000Y-102685000D01*
G75*
G02*
X198055000Y-102485000I0J200000D01*
G01*
X198055000Y-102085000D01*
G75*
G02*
X198255000Y-101885000I200000J0D01*
G01*
X198805000Y-101885000D01*
G75*
G02*
X199005000Y-102085000I0J-200000D01*
G01*
X199005000Y-102485000D01*
G75*
G02*
X198805000Y-102685000I-200000J0D01*
G01*
G37*
%TD*%
%TO.C,R17*%
G36*
G01*
X196745000Y-101045000D02*
X196195000Y-101045000D01*
G75*
G02*
X195995000Y-100845000I0J200000D01*
G01*
X195995000Y-100445000D01*
G75*
G02*
X196195000Y-100245000I200000J0D01*
G01*
X196745000Y-100245000D01*
G75*
G02*
X196945000Y-100445000I0J-200000D01*
G01*
X196945000Y-100845000D01*
G75*
G02*
X196745000Y-101045000I-200000J0D01*
G01*
G37*
G36*
G01*
X196745000Y-102695000D02*
X196195000Y-102695000D01*
G75*
G02*
X195995000Y-102495000I0J200000D01*
G01*
X195995000Y-102095000D01*
G75*
G02*
X196195000Y-101895000I200000J0D01*
G01*
X196745000Y-101895000D01*
G75*
G02*
X196945000Y-102095000I0J-200000D01*
G01*
X196945000Y-102495000D01*
G75*
G02*
X196745000Y-102695000I-200000J0D01*
G01*
G37*
%TD*%
%TO.C,R16*%
G36*
G01*
X246875000Y-115475000D02*
X246325000Y-115475000D01*
G75*
G02*
X246125000Y-115275000I0J200000D01*
G01*
X246125000Y-114875000D01*
G75*
G02*
X246325000Y-114675000I200000J0D01*
G01*
X246875000Y-114675000D01*
G75*
G02*
X247075000Y-114875000I0J-200000D01*
G01*
X247075000Y-115275000D01*
G75*
G02*
X246875000Y-115475000I-200000J0D01*
G01*
G37*
G36*
G01*
X246875000Y-117125000D02*
X246325000Y-117125000D01*
G75*
G02*
X246125000Y-116925000I0J200000D01*
G01*
X246125000Y-116525000D01*
G75*
G02*
X246325000Y-116325000I200000J0D01*
G01*
X246875000Y-116325000D01*
G75*
G02*
X247075000Y-116525000I0J-200000D01*
G01*
X247075000Y-116925000D01*
G75*
G02*
X246875000Y-117125000I-200000J0D01*
G01*
G37*
%TD*%
%TO.C,R15*%
G36*
G01*
X244255000Y-115445000D02*
X243705000Y-115445000D01*
G75*
G02*
X243505000Y-115245000I0J200000D01*
G01*
X243505000Y-114845000D01*
G75*
G02*
X243705000Y-114645000I200000J0D01*
G01*
X244255000Y-114645000D01*
G75*
G02*
X244455000Y-114845000I0J-200000D01*
G01*
X244455000Y-115245000D01*
G75*
G02*
X244255000Y-115445000I-200000J0D01*
G01*
G37*
G36*
G01*
X244255000Y-117095000D02*
X243705000Y-117095000D01*
G75*
G02*
X243505000Y-116895000I0J200000D01*
G01*
X243505000Y-116495000D01*
G75*
G02*
X243705000Y-116295000I200000J0D01*
G01*
X244255000Y-116295000D01*
G75*
G02*
X244455000Y-116495000I0J-200000D01*
G01*
X244455000Y-116895000D01*
G75*
G02*
X244255000Y-117095000I-200000J0D01*
G01*
G37*
%TD*%
D10*
%TO.C,P1*%
X182751000Y-89000000D03*
X180211000Y-89000000D03*
X177671000Y-89000000D03*
X181481000Y-91540000D03*
X184021000Y-91540000D03*
X178941000Y-91540000D03*
X176365000Y-91540000D03*
X185291000Y-89000000D03*
X199261000Y-89000000D03*
X191641000Y-89000000D03*
X196721000Y-89000000D03*
X195451000Y-91540000D03*
X190335000Y-91540000D03*
X194181000Y-89000000D03*
X192911000Y-91540000D03*
X197991000Y-91540000D03*
X213231000Y-89000000D03*
X205611000Y-89000000D03*
X210691000Y-89000000D03*
X209421000Y-91540000D03*
X204305000Y-91540000D03*
X208151000Y-89000000D03*
X206881000Y-91540000D03*
X211961000Y-91540000D03*
X220851000Y-91540000D03*
X219581000Y-89000000D03*
X218275000Y-91540000D03*
X224661000Y-89000000D03*
X222121000Y-89000000D03*
X227201000Y-89000000D03*
X223391000Y-91540000D03*
X225931000Y-91540000D03*
X239901000Y-91540000D03*
X238631000Y-89000000D03*
X236091000Y-89000000D03*
X241171000Y-89000000D03*
X237361000Y-91540000D03*
X234821000Y-91540000D03*
X233551000Y-89000000D03*
X232245000Y-91540000D03*
X255141000Y-89000000D03*
X251331000Y-91540000D03*
D11*
X256375000Y-82650000D03*
X175095000Y-82650000D03*
D10*
X248791000Y-91540000D03*
X247521000Y-89000000D03*
X246215000Y-91540000D03*
X253871000Y-91540000D03*
X252601000Y-89000000D03*
X250061000Y-89000000D03*
%TD*%
D12*
%TO.C,U7*%
X131230000Y-80850000D03*
X127730000Y-80850000D03*
X124230000Y-80850000D03*
%TD*%
%TO.C,R11*%
G36*
G01*
X249435000Y-115455000D02*
X248885000Y-115455000D01*
G75*
G02*
X248685000Y-115255000I0J200000D01*
G01*
X248685000Y-114855000D01*
G75*
G02*
X248885000Y-114655000I200000J0D01*
G01*
X249435000Y-114655000D01*
G75*
G02*
X249635000Y-114855000I0J-200000D01*
G01*
X249635000Y-115255000D01*
G75*
G02*
X249435000Y-115455000I-200000J0D01*
G01*
G37*
G36*
G01*
X249435000Y-117105000D02*
X248885000Y-117105000D01*
G75*
G02*
X248685000Y-116905000I0J200000D01*
G01*
X248685000Y-116505000D01*
G75*
G02*
X248885000Y-116305000I200000J0D01*
G01*
X249435000Y-116305000D01*
G75*
G02*
X249635000Y-116505000I0J-200000D01*
G01*
X249635000Y-116905000D01*
G75*
G02*
X249435000Y-117105000I-200000J0D01*
G01*
G37*
%TD*%
D13*
%TO.C,U1*%
X191464000Y-110800000D03*
X191464000Y-113340000D03*
D14*
X236454000Y-106990000D03*
X236454000Y-109530000D03*
X236454000Y-112070000D03*
X236454000Y-114610000D03*
X236454000Y-117150000D03*
D13*
X203704000Y-110888400D03*
X205704000Y-110888400D03*
X205704000Y-108888400D03*
X203704000Y-108888400D03*
X205704000Y-106888400D03*
D15*
X203704000Y-106888400D03*
D14*
X231374000Y-119690000D03*
X233914000Y-119690000D03*
X236454000Y-119690000D03*
X238994000Y-119690000D03*
X228834000Y-119690000D03*
X226294000Y-119690000D03*
X223754000Y-119690000D03*
X241534000Y-119690000D03*
X244074000Y-119690000D03*
X246614000Y-119690000D03*
X249154000Y-119690000D03*
X249154000Y-104450000D03*
X246614000Y-104450000D03*
X244074000Y-104450000D03*
X241534000Y-104450000D03*
X238994000Y-104450000D03*
X236454000Y-104450000D03*
X233914000Y-104450000D03*
X231374000Y-104450000D03*
X228834000Y-104450000D03*
X226294000Y-104450000D03*
X221214000Y-119690000D03*
X218674000Y-119690000D03*
X216134000Y-119690000D03*
X213594000Y-119690000D03*
X211054000Y-119690000D03*
X208514000Y-119690000D03*
X205974000Y-119690000D03*
X203434000Y-119690000D03*
X200894000Y-119690000D03*
X198354000Y-119690000D03*
X195814000Y-119690000D03*
X193274000Y-119690000D03*
D16*
X190734000Y-119690000D03*
D14*
X223754000Y-104450000D03*
X221214000Y-104450000D03*
X218674000Y-104450000D03*
X216134000Y-104450000D03*
X213594000Y-104450000D03*
X211054000Y-104450000D03*
X208514000Y-104450000D03*
X205974000Y-104450000D03*
X203434000Y-104450000D03*
X200894000Y-104450000D03*
X198354000Y-104450000D03*
X195814000Y-104450000D03*
X193274000Y-104450000D03*
X190734000Y-104450000D03*
D16*
X197033200Y-116639200D03*
D14*
X199573200Y-116639200D03*
X202113200Y-116639200D03*
X204653200Y-116639200D03*
X207193200Y-116639200D03*
X193274000Y-106990000D03*
%TD*%
%TO.C,R5*%
G36*
G01*
X194015000Y-102735000D02*
X193465000Y-102735000D01*
G75*
G02*
X193265000Y-102535000I0J200000D01*
G01*
X193265000Y-102135000D01*
G75*
G02*
X193465000Y-101935000I200000J0D01*
G01*
X194015000Y-101935000D01*
G75*
G02*
X194215000Y-102135000I0J-200000D01*
G01*
X194215000Y-102535000D01*
G75*
G02*
X194015000Y-102735000I-200000J0D01*
G01*
G37*
G36*
G01*
X194015000Y-101085000D02*
X193465000Y-101085000D01*
G75*
G02*
X193265000Y-100885000I0J200000D01*
G01*
X193265000Y-100485000D01*
G75*
G02*
X193465000Y-100285000I200000J0D01*
G01*
X194015000Y-100285000D01*
G75*
G02*
X194215000Y-100485000I0J-200000D01*
G01*
X194215000Y-100885000D01*
G75*
G02*
X194015000Y-101085000I-200000J0D01*
G01*
G37*
%TD*%
%TO.C,R6*%
G36*
G01*
X139865000Y-82725000D02*
X139865000Y-83275000D01*
G75*
G02*
X139665000Y-83475000I-200000J0D01*
G01*
X139265000Y-83475000D01*
G75*
G02*
X139065000Y-83275000I0J200000D01*
G01*
X139065000Y-82725000D01*
G75*
G02*
X139265000Y-82525000I200000J0D01*
G01*
X139665000Y-82525000D01*
G75*
G02*
X139865000Y-82725000I0J-200000D01*
G01*
G37*
G36*
G01*
X141515000Y-82725000D02*
X141515000Y-83275000D01*
G75*
G02*
X141315000Y-83475000I-200000J0D01*
G01*
X140915000Y-83475000D01*
G75*
G02*
X140715000Y-83275000I0J200000D01*
G01*
X140715000Y-82725000D01*
G75*
G02*
X140915000Y-82525000I200000J0D01*
G01*
X141315000Y-82525000D01*
G75*
G02*
X141515000Y-82725000I0J-200000D01*
G01*
G37*
%TD*%
%TO.C,C4*%
G36*
G01*
X175792000Y-113625000D02*
X175292000Y-113625000D01*
G75*
G02*
X175067000Y-113400000I0J225000D01*
G01*
X175067000Y-112950000D01*
G75*
G02*
X175292000Y-112725000I225000J0D01*
G01*
X175792000Y-112725000D01*
G75*
G02*
X176017000Y-112950000I0J-225000D01*
G01*
X176017000Y-113400000D01*
G75*
G02*
X175792000Y-113625000I-225000J0D01*
G01*
G37*
G36*
G01*
X175792000Y-115175000D02*
X175292000Y-115175000D01*
G75*
G02*
X175067000Y-114950000I0J225000D01*
G01*
X175067000Y-114500000D01*
G75*
G02*
X175292000Y-114275000I225000J0D01*
G01*
X175792000Y-114275000D01*
G75*
G02*
X176017000Y-114500000I0J-225000D01*
G01*
X176017000Y-114950000D01*
G75*
G02*
X175792000Y-115175000I-225000J0D01*
G01*
G37*
%TD*%
%TO.C,C1*%
G36*
G01*
X169347000Y-114050000D02*
X169347000Y-114550000D01*
G75*
G02*
X169122000Y-114775000I-225000J0D01*
G01*
X168672000Y-114775000D01*
G75*
G02*
X168447000Y-114550000I0J225000D01*
G01*
X168447000Y-114050000D01*
G75*
G02*
X168672000Y-113825000I225000J0D01*
G01*
X169122000Y-113825000D01*
G75*
G02*
X169347000Y-114050000I0J-225000D01*
G01*
G37*
G36*
G01*
X170897000Y-114050000D02*
X170897000Y-114550000D01*
G75*
G02*
X170672000Y-114775000I-225000J0D01*
G01*
X170222000Y-114775000D01*
G75*
G02*
X169997000Y-114550000I0J225000D01*
G01*
X169997000Y-114050000D01*
G75*
G02*
X170222000Y-113825000I225000J0D01*
G01*
X170672000Y-113825000D01*
G75*
G02*
X170897000Y-114050000I0J-225000D01*
G01*
G37*
%TD*%
D17*
%TO.C,D2*%
X166320000Y-120494000D03*
D18*
X176480000Y-120494000D03*
%TD*%
D19*
%TO.C,C6*%
X148972000Y-110186000D03*
X148972000Y-107486000D03*
%TD*%
%TO.C,C8*%
X146178000Y-107486000D03*
X146178000Y-110186000D03*
%TD*%
%TO.C,C2*%
G36*
G01*
X155123000Y-113796000D02*
X155123000Y-114296000D01*
G75*
G02*
X154898000Y-114521000I-225000J0D01*
G01*
X154448000Y-114521000D01*
G75*
G02*
X154223000Y-114296000I0J225000D01*
G01*
X154223000Y-113796000D01*
G75*
G02*
X154448000Y-113571000I225000J0D01*
G01*
X154898000Y-113571000D01*
G75*
G02*
X155123000Y-113796000I0J-225000D01*
G01*
G37*
G36*
G01*
X156673000Y-113796000D02*
X156673000Y-114296000D01*
G75*
G02*
X156448000Y-114521000I-225000J0D01*
G01*
X155998000Y-114521000D01*
G75*
G02*
X155773000Y-114296000I0J225000D01*
G01*
X155773000Y-113796000D01*
G75*
G02*
X155998000Y-113571000I225000J0D01*
G01*
X156448000Y-113571000D01*
G75*
G02*
X156673000Y-113796000I0J-225000D01*
G01*
G37*
%TD*%
%TO.C,C5*%
G36*
G01*
X160345000Y-114296000D02*
X160345000Y-113796000D01*
G75*
G02*
X160570000Y-113571000I225000J0D01*
G01*
X161020000Y-113571000D01*
G75*
G02*
X161245000Y-113796000I0J-225000D01*
G01*
X161245000Y-114296000D01*
G75*
G02*
X161020000Y-114521000I-225000J0D01*
G01*
X160570000Y-114521000D01*
G75*
G02*
X160345000Y-114296000I0J225000D01*
G01*
G37*
G36*
G01*
X158795000Y-114296000D02*
X158795000Y-113796000D01*
G75*
G02*
X159020000Y-113571000I225000J0D01*
G01*
X159470000Y-113571000D01*
G75*
G02*
X159695000Y-113796000I0J-225000D01*
G01*
X159695000Y-114296000D01*
G75*
G02*
X159470000Y-114521000I-225000J0D01*
G01*
X159020000Y-114521000D01*
G75*
G02*
X158795000Y-114296000I0J225000D01*
G01*
G37*
%TD*%
D18*
%TO.C,D1*%
X156210000Y-116840000D03*
D17*
X166370000Y-116840000D03*
%TD*%
%TO.C,R2*%
G36*
G01*
X142347000Y-107737000D02*
X142897000Y-107737000D01*
G75*
G02*
X143097000Y-107937000I0J-200000D01*
G01*
X143097000Y-108337000D01*
G75*
G02*
X142897000Y-108537000I-200000J0D01*
G01*
X142347000Y-108537000D01*
G75*
G02*
X142147000Y-108337000I0J200000D01*
G01*
X142147000Y-107937000D01*
G75*
G02*
X142347000Y-107737000I200000J0D01*
G01*
G37*
G36*
G01*
X142347000Y-106087000D02*
X142897000Y-106087000D01*
G75*
G02*
X143097000Y-106287000I0J-200000D01*
G01*
X143097000Y-106687000D01*
G75*
G02*
X142897000Y-106887000I-200000J0D01*
G01*
X142347000Y-106887000D01*
G75*
G02*
X142147000Y-106687000I0J200000D01*
G01*
X142147000Y-106287000D01*
G75*
G02*
X142347000Y-106087000I200000J0D01*
G01*
G37*
%TD*%
%TO.C,R4*%
G36*
G01*
X144609000Y-109577000D02*
X144609000Y-110127000D01*
G75*
G02*
X144409000Y-110327000I-200000J0D01*
G01*
X144009000Y-110327000D01*
G75*
G02*
X143809000Y-110127000I0J200000D01*
G01*
X143809000Y-109577000D01*
G75*
G02*
X144009000Y-109377000I200000J0D01*
G01*
X144409000Y-109377000D01*
G75*
G02*
X144609000Y-109577000I0J-200000D01*
G01*
G37*
G36*
G01*
X142959000Y-109577000D02*
X142959000Y-110127000D01*
G75*
G02*
X142759000Y-110327000I-200000J0D01*
G01*
X142359000Y-110327000D01*
G75*
G02*
X142159000Y-110127000I0J200000D01*
G01*
X142159000Y-109577000D01*
G75*
G02*
X142359000Y-109377000I200000J0D01*
G01*
X142759000Y-109377000D01*
G75*
G02*
X142959000Y-109577000I0J-200000D01*
G01*
G37*
%TD*%
%TO.C,C3*%
G36*
G01*
X204515000Y-99818000D02*
X204515000Y-99318000D01*
G75*
G02*
X204740000Y-99093000I225000J0D01*
G01*
X205190000Y-99093000D01*
G75*
G02*
X205415000Y-99318000I0J-225000D01*
G01*
X205415000Y-99818000D01*
G75*
G02*
X205190000Y-100043000I-225000J0D01*
G01*
X204740000Y-100043000D01*
G75*
G02*
X204515000Y-99818000I0J225000D01*
G01*
G37*
G36*
G01*
X206065000Y-99818000D02*
X206065000Y-99318000D01*
G75*
G02*
X206290000Y-99093000I225000J0D01*
G01*
X206740000Y-99093000D01*
G75*
G02*
X206965000Y-99318000I0J-225000D01*
G01*
X206965000Y-99818000D01*
G75*
G02*
X206740000Y-100043000I-225000J0D01*
G01*
X206290000Y-100043000D01*
G75*
G02*
X206065000Y-99818000I0J225000D01*
G01*
G37*
%TD*%
%TO.C,C7*%
G36*
G01*
X222139000Y-99688000D02*
X222139000Y-100188000D01*
G75*
G02*
X221914000Y-100413000I-225000J0D01*
G01*
X221464000Y-100413000D01*
G75*
G02*
X221239000Y-100188000I0J225000D01*
G01*
X221239000Y-99688000D01*
G75*
G02*
X221464000Y-99463000I225000J0D01*
G01*
X221914000Y-99463000D01*
G75*
G02*
X222139000Y-99688000I0J-225000D01*
G01*
G37*
G36*
G01*
X223689000Y-99688000D02*
X223689000Y-100188000D01*
G75*
G02*
X223464000Y-100413000I-225000J0D01*
G01*
X223014000Y-100413000D01*
G75*
G02*
X222789000Y-100188000I0J225000D01*
G01*
X222789000Y-99688000D01*
G75*
G02*
X223014000Y-99463000I225000J0D01*
G01*
X223464000Y-99463000D01*
G75*
G02*
X223689000Y-99688000I0J-225000D01*
G01*
G37*
%TD*%
%TO.C,C9*%
G36*
G01*
X210761000Y-101468000D02*
X210761000Y-101968000D01*
G75*
G02*
X210536000Y-102193000I-225000J0D01*
G01*
X210086000Y-102193000D01*
G75*
G02*
X209861000Y-101968000I0J225000D01*
G01*
X209861000Y-101468000D01*
G75*
G02*
X210086000Y-101243000I225000J0D01*
G01*
X210536000Y-101243000D01*
G75*
G02*
X210761000Y-101468000I0J-225000D01*
G01*
G37*
G36*
G01*
X209211000Y-101468000D02*
X209211000Y-101968000D01*
G75*
G02*
X208986000Y-102193000I-225000J0D01*
G01*
X208536000Y-102193000D01*
G75*
G02*
X208311000Y-101968000I0J225000D01*
G01*
X208311000Y-101468000D01*
G75*
G02*
X208536000Y-101243000I225000J0D01*
G01*
X208986000Y-101243000D01*
G75*
G02*
X209211000Y-101468000I0J-225000D01*
G01*
G37*
%TD*%
%TO.C,C10*%
G36*
G01*
X219031000Y-99708000D02*
X219031000Y-100208000D01*
G75*
G02*
X218806000Y-100433000I-225000J0D01*
G01*
X218356000Y-100433000D01*
G75*
G02*
X218131000Y-100208000I0J225000D01*
G01*
X218131000Y-99708000D01*
G75*
G02*
X218356000Y-99483000I225000J0D01*
G01*
X218806000Y-99483000D01*
G75*
G02*
X219031000Y-99708000I0J-225000D01*
G01*
G37*
G36*
G01*
X220581000Y-99708000D02*
X220581000Y-100208000D01*
G75*
G02*
X220356000Y-100433000I-225000J0D01*
G01*
X219906000Y-100433000D01*
G75*
G02*
X219681000Y-100208000I0J225000D01*
G01*
X219681000Y-99708000D01*
G75*
G02*
X219906000Y-99483000I225000J0D01*
G01*
X220356000Y-99483000D01*
G75*
G02*
X220581000Y-99708000I0J-225000D01*
G01*
G37*
%TD*%
%TO.C,C11*%
G36*
G01*
X214023000Y-101438000D02*
X214023000Y-101938000D01*
G75*
G02*
X213798000Y-102163000I-225000J0D01*
G01*
X213348000Y-102163000D01*
G75*
G02*
X213123000Y-101938000I0J225000D01*
G01*
X213123000Y-101438000D01*
G75*
G02*
X213348000Y-101213000I225000J0D01*
G01*
X213798000Y-101213000D01*
G75*
G02*
X214023000Y-101438000I0J-225000D01*
G01*
G37*
G36*
G01*
X212473000Y-101438000D02*
X212473000Y-101938000D01*
G75*
G02*
X212248000Y-102163000I-225000J0D01*
G01*
X211798000Y-102163000D01*
G75*
G02*
X211573000Y-101938000I0J225000D01*
G01*
X211573000Y-101438000D01*
G75*
G02*
X211798000Y-101213000I225000J0D01*
G01*
X212248000Y-101213000D01*
G75*
G02*
X212473000Y-101438000I0J-225000D01*
G01*
G37*
%TD*%
%TO.C,C12*%
G36*
G01*
X216429000Y-100238000D02*
X216429000Y-99738000D01*
G75*
G02*
X216654000Y-99513000I225000J0D01*
G01*
X217104000Y-99513000D01*
G75*
G02*
X217329000Y-99738000I0J-225000D01*
G01*
X217329000Y-100238000D01*
G75*
G02*
X217104000Y-100463000I-225000J0D01*
G01*
X216654000Y-100463000D01*
G75*
G02*
X216429000Y-100238000I0J225000D01*
G01*
G37*
G36*
G01*
X214879000Y-100238000D02*
X214879000Y-99738000D01*
G75*
G02*
X215104000Y-99513000I225000J0D01*
G01*
X215554000Y-99513000D01*
G75*
G02*
X215779000Y-99738000I0J-225000D01*
G01*
X215779000Y-100238000D01*
G75*
G02*
X215554000Y-100463000I-225000J0D01*
G01*
X215104000Y-100463000D01*
G75*
G02*
X214879000Y-100238000I0J225000D01*
G01*
G37*
%TD*%
%TO.C,R1*%
G36*
G01*
X206965000Y-101195000D02*
X206965000Y-101745000D01*
G75*
G02*
X206765000Y-101945000I-200000J0D01*
G01*
X206365000Y-101945000D01*
G75*
G02*
X206165000Y-101745000I0J200000D01*
G01*
X206165000Y-101195000D01*
G75*
G02*
X206365000Y-100995000I200000J0D01*
G01*
X206765000Y-100995000D01*
G75*
G02*
X206965000Y-101195000I0J-200000D01*
G01*
G37*
G36*
G01*
X205315000Y-101195000D02*
X205315000Y-101745000D01*
G75*
G02*
X205115000Y-101945000I-200000J0D01*
G01*
X204715000Y-101945000D01*
G75*
G02*
X204515000Y-101745000I0J200000D01*
G01*
X204515000Y-101195000D01*
G75*
G02*
X204715000Y-100995000I200000J0D01*
G01*
X205115000Y-100995000D01*
G75*
G02*
X205315000Y-101195000I0J-200000D01*
G01*
G37*
%TD*%
%TO.C,R3*%
G36*
G01*
X209931000Y-100283000D02*
X209931000Y-99733000D01*
G75*
G02*
X210131000Y-99533000I200000J0D01*
G01*
X210531000Y-99533000D01*
G75*
G02*
X210731000Y-99733000I0J-200000D01*
G01*
X210731000Y-100283000D01*
G75*
G02*
X210531000Y-100483000I-200000J0D01*
G01*
X210131000Y-100483000D01*
G75*
G02*
X209931000Y-100283000I0J200000D01*
G01*
G37*
G36*
G01*
X208281000Y-100283000D02*
X208281000Y-99733000D01*
G75*
G02*
X208481000Y-99533000I200000J0D01*
G01*
X208881000Y-99533000D01*
G75*
G02*
X209081000Y-99733000I0J-200000D01*
G01*
X209081000Y-100283000D01*
G75*
G02*
X208881000Y-100483000I-200000J0D01*
G01*
X208481000Y-100483000D01*
G75*
G02*
X208281000Y-100283000I0J200000D01*
G01*
G37*
%TD*%
%TO.C,R7*%
G36*
G01*
X222899000Y-101793000D02*
X222899000Y-101243000D01*
G75*
G02*
X223099000Y-101043000I200000J0D01*
G01*
X223499000Y-101043000D01*
G75*
G02*
X223699000Y-101243000I0J-200000D01*
G01*
X223699000Y-101793000D01*
G75*
G02*
X223499000Y-101993000I-200000J0D01*
G01*
X223099000Y-101993000D01*
G75*
G02*
X222899000Y-101793000I0J200000D01*
G01*
G37*
G36*
G01*
X221249000Y-101793000D02*
X221249000Y-101243000D01*
G75*
G02*
X221449000Y-101043000I200000J0D01*
G01*
X221849000Y-101043000D01*
G75*
G02*
X222049000Y-101243000I0J-200000D01*
G01*
X222049000Y-101793000D01*
G75*
G02*
X221849000Y-101993000I-200000J0D01*
G01*
X221449000Y-101993000D01*
G75*
G02*
X221249000Y-101793000I0J200000D01*
G01*
G37*
%TD*%
%TO.C,R8*%
G36*
G01*
X211573000Y-100333000D02*
X211573000Y-99783000D01*
G75*
G02*
X211773000Y-99583000I200000J0D01*
G01*
X212173000Y-99583000D01*
G75*
G02*
X212373000Y-99783000I0J-200000D01*
G01*
X212373000Y-100333000D01*
G75*
G02*
X212173000Y-100533000I-200000J0D01*
G01*
X211773000Y-100533000D01*
G75*
G02*
X211573000Y-100333000I0J200000D01*
G01*
G37*
G36*
G01*
X213223000Y-100333000D02*
X213223000Y-99783000D01*
G75*
G02*
X213423000Y-99583000I200000J0D01*
G01*
X213823000Y-99583000D01*
G75*
G02*
X214023000Y-99783000I0J-200000D01*
G01*
X214023000Y-100333000D01*
G75*
G02*
X213823000Y-100533000I-200000J0D01*
G01*
X213423000Y-100533000D01*
G75*
G02*
X213223000Y-100333000I0J200000D01*
G01*
G37*
%TD*%
%TO.C,R9*%
G36*
G01*
X218131000Y-101833000D02*
X218131000Y-101283000D01*
G75*
G02*
X218331000Y-101083000I200000J0D01*
G01*
X218731000Y-101083000D01*
G75*
G02*
X218931000Y-101283000I0J-200000D01*
G01*
X218931000Y-101833000D01*
G75*
G02*
X218731000Y-102033000I-200000J0D01*
G01*
X218331000Y-102033000D01*
G75*
G02*
X218131000Y-101833000I0J200000D01*
G01*
G37*
G36*
G01*
X219781000Y-101833000D02*
X219781000Y-101283000D01*
G75*
G02*
X219981000Y-101083000I200000J0D01*
G01*
X220381000Y-101083000D01*
G75*
G02*
X220581000Y-101283000I0J-200000D01*
G01*
X220581000Y-101833000D01*
G75*
G02*
X220381000Y-102033000I-200000J0D01*
G01*
X219981000Y-102033000D01*
G75*
G02*
X219781000Y-101833000I0J200000D01*
G01*
G37*
%TD*%
%TO.C,R10*%
G36*
G01*
X215689000Y-101303000D02*
X215689000Y-101853000D01*
G75*
G02*
X215489000Y-102053000I-200000J0D01*
G01*
X215089000Y-102053000D01*
G75*
G02*
X214889000Y-101853000I0J200000D01*
G01*
X214889000Y-101303000D01*
G75*
G02*
X215089000Y-101103000I200000J0D01*
G01*
X215489000Y-101103000D01*
G75*
G02*
X215689000Y-101303000I0J-200000D01*
G01*
G37*
G36*
G01*
X217339000Y-101303000D02*
X217339000Y-101853000D01*
G75*
G02*
X217139000Y-102053000I-200000J0D01*
G01*
X216739000Y-102053000D01*
G75*
G02*
X216539000Y-101853000I0J200000D01*
G01*
X216539000Y-101303000D01*
G75*
G02*
X216739000Y-101103000I200000J0D01*
G01*
X217139000Y-101103000D01*
G75*
G02*
X217339000Y-101303000I0J-200000D01*
G01*
G37*
%TD*%
%TO.C,D3*%
X139042000Y-107820000D03*
D18*
X128882000Y-107820000D03*
%TD*%
%TO.C,R12*%
G36*
G01*
X246865000Y-102685000D02*
X246315000Y-102685000D01*
G75*
G02*
X246115000Y-102485000I0J200000D01*
G01*
X246115000Y-102085000D01*
G75*
G02*
X246315000Y-101885000I200000J0D01*
G01*
X246865000Y-101885000D01*
G75*
G02*
X247065000Y-102085000I0J-200000D01*
G01*
X247065000Y-102485000D01*
G75*
G02*
X246865000Y-102685000I-200000J0D01*
G01*
G37*
G36*
G01*
X246865000Y-101035000D02*
X246315000Y-101035000D01*
G75*
G02*
X246115000Y-100835000I0J200000D01*
G01*
X246115000Y-100435000D01*
G75*
G02*
X246315000Y-100235000I200000J0D01*
G01*
X246865000Y-100235000D01*
G75*
G02*
X247065000Y-100435000I0J-200000D01*
G01*
X247065000Y-100835000D01*
G75*
G02*
X246865000Y-101035000I-200000J0D01*
G01*
G37*
%TD*%
%TO.C,R13*%
G36*
G01*
X244335000Y-102665000D02*
X243785000Y-102665000D01*
G75*
G02*
X243585000Y-102465000I0J200000D01*
G01*
X243585000Y-102065000D01*
G75*
G02*
X243785000Y-101865000I200000J0D01*
G01*
X244335000Y-101865000D01*
G75*
G02*
X244535000Y-102065000I0J-200000D01*
G01*
X244535000Y-102465000D01*
G75*
G02*
X244335000Y-102665000I-200000J0D01*
G01*
G37*
G36*
G01*
X244335000Y-101015000D02*
X243785000Y-101015000D01*
G75*
G02*
X243585000Y-100815000I0J200000D01*
G01*
X243585000Y-100415000D01*
G75*
G02*
X243785000Y-100215000I200000J0D01*
G01*
X244335000Y-100215000D01*
G75*
G02*
X244535000Y-100415000I0J-200000D01*
G01*
X244535000Y-100815000D01*
G75*
G02*
X244335000Y-101015000I-200000J0D01*
G01*
G37*
%TD*%
%TO.C,C13*%
G36*
G01*
X139292000Y-112321000D02*
X138792000Y-112321000D01*
G75*
G02*
X138567000Y-112096000I0J225000D01*
G01*
X138567000Y-111646000D01*
G75*
G02*
X138792000Y-111421000I225000J0D01*
G01*
X139292000Y-111421000D01*
G75*
G02*
X139517000Y-111646000I0J-225000D01*
G01*
X139517000Y-112096000D01*
G75*
G02*
X139292000Y-112321000I-225000J0D01*
G01*
G37*
G36*
G01*
X139292000Y-113871000D02*
X138792000Y-113871000D01*
G75*
G02*
X138567000Y-113646000I0J225000D01*
G01*
X138567000Y-113196000D01*
G75*
G02*
X138792000Y-112971000I225000J0D01*
G01*
X139292000Y-112971000D01*
G75*
G02*
X139517000Y-113196000I0J-225000D01*
G01*
X139517000Y-113646000D01*
G75*
G02*
X139292000Y-113871000I-225000J0D01*
G01*
G37*
%TD*%
%TO.C,C14*%
G36*
G01*
X131467000Y-111118000D02*
X131467000Y-110618000D01*
G75*
G02*
X131692000Y-110393000I225000J0D01*
G01*
X132142000Y-110393000D01*
G75*
G02*
X132367000Y-110618000I0J-225000D01*
G01*
X132367000Y-111118000D01*
G75*
G02*
X132142000Y-111343000I-225000J0D01*
G01*
X131692000Y-111343000D01*
G75*
G02*
X131467000Y-111118000I0J225000D01*
G01*
G37*
G36*
G01*
X133017000Y-111118000D02*
X133017000Y-110618000D01*
G75*
G02*
X133242000Y-110393000I225000J0D01*
G01*
X133692000Y-110393000D01*
G75*
G02*
X133917000Y-110618000I0J-225000D01*
G01*
X133917000Y-111118000D01*
G75*
G02*
X133692000Y-111343000I-225000J0D01*
G01*
X133242000Y-111343000D01*
G75*
G02*
X133017000Y-111118000I0J225000D01*
G01*
G37*
%TD*%
D20*
%TO.C,J1*%
X143510000Y-83140000D03*
X143510000Y-85680000D03*
X146050000Y-83140000D03*
X146050000Y-85680000D03*
X148590000Y-83140000D03*
X148590000Y-85680000D03*
X151130000Y-83140000D03*
X151130000Y-85680000D03*
X153670000Y-83140000D03*
X153670000Y-85680000D03*
X156210000Y-83140000D03*
X156210000Y-85680000D03*
X158750000Y-83140000D03*
X158750000Y-85680000D03*
X161290000Y-83140000D03*
X161290000Y-85680000D03*
X163830000Y-83140000D03*
X163830000Y-85680000D03*
X166370000Y-83140000D03*
X166370000Y-85680000D03*
%TD*%
D21*
%TO.C,H1*%
X124000000Y-126000000D03*
%TD*%
%TO.C,H2*%
X255000000Y-98000000D03*
%TD*%
%TO.C,H3*%
X124000000Y-98000000D03*
%TD*%
%TO.C,H4*%
X255000000Y-126000000D03*
%TD*%
D22*
%TO.C,U5*%
X132010000Y-118550000D03*
X135510000Y-118550000D03*
X139010000Y-118550000D03*
X142510000Y-118550000D03*
X146010000Y-118550000D03*
X149510000Y-118550000D03*
%TD*%
D23*
%TO.C,U2*%
X168536920Y-111634340D03*
X171076920Y-111634340D03*
D24*
X173616920Y-111634340D03*
D25*
X171076920Y-127434340D03*
%TD*%
D23*
%TO.C,U3*%
X156204920Y-111686340D03*
X158744920Y-111686340D03*
D24*
X161284920Y-111686340D03*
D25*
X158744920Y-127486340D03*
%TD*%
%TO.C,U4*%
X133967080Y-97173660D03*
D24*
X131427080Y-112973660D03*
D23*
X133967080Y-112973660D03*
X136507080Y-112973660D03*
%TD*%
D25*
%TO.C,U6*%
X146003080Y-97109660D03*
D24*
X143463080Y-112909660D03*
D23*
X146003080Y-112909660D03*
X148543080Y-112909660D03*
%TD*%
M02*
