M48
; DRILL file {KiCad (5.1.10-1-10_14)} date Tuesday, November 09, 2021 at 05:04:23 PM
; FORMAT={-:-/ absolute / inch / decimal}
; #@! TF.CreationDate,2021-11-09T17:04:23-05:00
; #@! TF.GenerationSoftware,Kicad,Pcbnew,(5.1.10-1-10_14)
FMAT,2
INCH
T1C0.0157
T2C0.0315
T3C0.0382
T4C0.0390
T5C0.0433
T6C0.0472
T7C0.0551
T8C0.0591
T9C0.1339
T10C0.1378
T11C0.2559
%
G90
G05
T1
X4.685Y-4.5669
X4.7244Y-3.5039
X5.0291Y-3.2673
X5.1575Y-4.8819
X5.52Y-3.49
X5.5335Y-3.9844
X5.7803Y-4.8929
X6.53Y-3.64
X6.63Y-3.81
X6.81Y-3.9
X6.86Y-3.5
X6.97Y-4.39
X6.97Y-4.49
X6.97Y-4.59
X6.97Y-4.85
X6.98Y-5.11
X7.1874Y-3.6441
X7.38Y-4.32
X7.38Y-4.43
X7.38Y-4.54
X7.38Y-4.65
X7.735Y-3.911
X7.7358Y-3.6382
X7.8161Y-3.9114
X7.9008Y-3.9134
X7.9996Y-3.861
X8.0035Y-3.9161
X8.1488Y-3.8472
X8.352Y-4.0469
X8.4429Y-3.7957
X8.5591Y-4.0547
X8.8689Y-3.9189
X8.9362Y-4.0307
X9.0106Y-3.9114
X9.1067Y-3.9138
X9.2126Y-3.9114
X9.3118Y-3.9138
X9.4063Y-3.9126
X9.5039Y-4.4858
X9.5071Y-3.913
X9.6055Y-4.487
X9.6087Y-3.9122
X9.7083Y-3.9157
X9.7087Y-4.4866
X9.8094Y-4.4854
X9.811Y-3.9236
T2
X7.538Y-4.3622
X7.538Y-4.4622
X8.0198Y-4.2082
X8.0198Y-4.2869
X8.0198Y-4.3657
X8.0986Y-4.2082
X8.0986Y-4.2869
X8.0986Y-4.3657
T3
X6.9435Y-3.6039
X6.9949Y-3.5039
X7.0449Y-3.6039
X7.0949Y-3.5039
X7.1449Y-3.6039
X7.1949Y-3.5039
X7.2449Y-3.6039
X7.2949Y-3.5039
X7.4935Y-3.6039
X7.5449Y-3.5039
X7.5949Y-3.6039
X7.6449Y-3.5039
X7.6949Y-3.6039
X7.7449Y-3.5039
X7.7949Y-3.6039
X7.8449Y-3.5039
X8.0435Y-3.6039
X8.0949Y-3.5039
X8.1449Y-3.6039
X8.1949Y-3.5039
X8.2449Y-3.6039
X8.2949Y-3.5039
X8.3449Y-3.6039
X8.3949Y-3.5039
X8.5935Y-3.6039
X8.6449Y-3.5039
X8.6949Y-3.6039
X8.7449Y-3.5039
X8.7949Y-3.6039
X8.8449Y-3.5039
X8.8949Y-3.6039
X8.9449Y-3.5039
X9.1435Y-3.6039
X9.1949Y-3.5039
X9.2449Y-3.6039
X9.2949Y-3.5039
X9.3449Y-3.6039
X9.3949Y-3.5039
X9.4449Y-3.6039
X9.4949Y-3.5039
X9.6935Y-3.6039
X9.7449Y-3.5039
X9.7949Y-3.6039
X9.8449Y-3.5039
X9.8949Y-3.6039
X9.9449Y-3.5039
X9.9949Y-3.6039
X10.0449Y-3.5039
T4
X5.65Y-3.2732
X5.65Y-3.3732
X5.75Y-3.2732
X5.75Y-3.3732
X5.85Y-3.2732
X5.85Y-3.3732
X5.95Y-3.2732
X5.95Y-3.3732
X6.05Y-3.2732
X6.05Y-3.3732
X6.15Y-3.2732
X6.15Y-3.3732
X6.25Y-3.2732
X6.25Y-3.3732
X6.35Y-3.2732
X6.35Y-3.3732
X6.45Y-3.2732
X6.45Y-3.3732
X6.55Y-3.2732
X6.55Y-3.3732
T5
X5.0741Y-4.2449
X5.4741Y-4.2449
X6.15Y-4.6
X6.548Y-4.7439
X6.55Y-4.6
X6.948Y-4.7439
X7.5092Y-4.1122
X7.5092Y-4.7122
X7.6092Y-4.1122
X7.6092Y-4.2122
X7.6092Y-4.7122
X7.7092Y-4.1122
X7.7092Y-4.7122
X7.7572Y-4.5921
X7.8092Y-4.1122
X7.8092Y-4.7122
X7.8572Y-4.5921
X7.9092Y-4.1122
X7.9092Y-4.7122
X7.9572Y-4.5921
X8.0092Y-4.1122
X8.0092Y-4.7122
X8.0572Y-4.5921
X8.1092Y-4.1122
X8.1092Y-4.7122
X8.1572Y-4.5921
X8.2092Y-4.1122
X8.2092Y-4.7122
X8.3092Y-4.1122
X8.3092Y-4.7122
X8.4092Y-4.1122
X8.4092Y-4.7122
X8.5092Y-4.1122
X8.5092Y-4.7122
X8.6092Y-4.1122
X8.6092Y-4.7122
X8.7092Y-4.1122
X8.7092Y-4.7122
X8.8092Y-4.1122
X8.8092Y-4.7122
X8.9092Y-4.1122
X8.9092Y-4.7122
X9.0092Y-4.1122
X9.0092Y-4.7122
X9.1092Y-4.1122
X9.1092Y-4.7122
X9.2092Y-4.1122
X9.2092Y-4.7122
X9.3092Y-4.1122
X9.3092Y-4.2122
X9.3092Y-4.3122
X9.3092Y-4.4122
X9.3092Y-4.5122
X9.3092Y-4.6122
X9.3092Y-4.7122
X9.4092Y-4.1122
X9.4092Y-4.7122
X9.5092Y-4.1122
X9.5092Y-4.7122
X9.6092Y-4.1122
X9.6092Y-4.7122
X9.7092Y-4.1122
X9.7092Y-4.7122
X9.8092Y-4.1122
X9.8092Y-4.7122
T6
X5.1743Y-4.4478
X5.2743Y-4.4478
X5.3743Y-4.4478
X5.6482Y-4.4453
X5.7482Y-4.4453
X5.8482Y-4.4453
X6.1498Y-4.3971
X6.2498Y-4.3971
X6.3498Y-4.3971
X6.6353Y-4.3951
X6.7353Y-4.3951
X6.8353Y-4.3951
T7
X4.8909Y-3.1831
X5.0287Y-3.1831
X5.1665Y-3.1831
T8
X5.1972Y-4.6673
X5.335Y-4.6673
X5.4728Y-4.6673
X5.6106Y-4.6673
X5.7484Y-4.6673
X5.8862Y-4.6673
T9
X6.8935Y-3.2539
X10.0935Y-3.2539
T10
X4.8819Y-3.8583
X4.8819Y-4.9606
X10.0394Y-3.8583
X10.0394Y-4.9606
T11
X5.2743Y-3.8257
X5.7482Y-3.8232
X6.2498Y-5.0191
X6.7353Y-5.0171
T0
M30
