%TF.GenerationSoftware,KiCad,Pcbnew,(5.1.10-1-10_14)*%
%TF.CreationDate,2021-11-09T17:04:18-05:00*%
%TF.ProjectId,TeensyBoardv2,5465656e-7379-4426-9f61-726476322e6b,v01*%
%TF.SameCoordinates,Original*%
%TF.FileFunction,Soldermask,Bot*%
%TF.FilePolarity,Negative*%
%FSLAX46Y46*%
G04 Gerber Fmt 4.6, Leading zero omitted, Abs format (unit mm)*
G04 Created by KiCad (PCBNEW (5.1.10-1-10_14)) date 2021-11-09 17:04:18*
%MOMM*%
%LPD*%
G01*
G04 APERTURE LIST*
%ADD10C,1.478000*%
%ADD11C,3.400000*%
%ADD12C,2.200000*%
%ADD13C,1.300000*%
%ADD14C,1.600000*%
%ADD15R,1.300000X1.300000*%
%ADD16R,1.600000X1.600000*%
%ADD17R,2.200000X2.200000*%
%ADD18O,2.200000X2.200000*%
%ADD19C,1.498600*%
%ADD20C,3.500000*%
%ADD21C,2.400000*%
%ADD22O,1.905000X2.000000*%
%ADD23R,1.905000X2.000000*%
%ADD24O,6.500000X6.500000*%
G04 APERTURE END LIST*
D10*
%TO.C,P1*%
X182751000Y-89000000D03*
X180211000Y-89000000D03*
X177671000Y-89000000D03*
X181481000Y-91540000D03*
X184021000Y-91540000D03*
X178941000Y-91540000D03*
X176365000Y-91540000D03*
X185291000Y-89000000D03*
X199261000Y-89000000D03*
X191641000Y-89000000D03*
X196721000Y-89000000D03*
X195451000Y-91540000D03*
X190335000Y-91540000D03*
X194181000Y-89000000D03*
X192911000Y-91540000D03*
X197991000Y-91540000D03*
X213231000Y-89000000D03*
X205611000Y-89000000D03*
X210691000Y-89000000D03*
X209421000Y-91540000D03*
X204305000Y-91540000D03*
X208151000Y-89000000D03*
X206881000Y-91540000D03*
X211961000Y-91540000D03*
X220851000Y-91540000D03*
X219581000Y-89000000D03*
X218275000Y-91540000D03*
X224661000Y-89000000D03*
X222121000Y-89000000D03*
X227201000Y-89000000D03*
X223391000Y-91540000D03*
X225931000Y-91540000D03*
X239901000Y-91540000D03*
X238631000Y-89000000D03*
X236091000Y-89000000D03*
X241171000Y-89000000D03*
X237361000Y-91540000D03*
X234821000Y-91540000D03*
X233551000Y-89000000D03*
X232245000Y-91540000D03*
X255141000Y-89000000D03*
X251331000Y-91540000D03*
D11*
X256375000Y-82650000D03*
X175095000Y-82650000D03*
D10*
X248791000Y-91540000D03*
X247521000Y-89000000D03*
X246215000Y-91540000D03*
X253871000Y-91540000D03*
X252601000Y-89000000D03*
X250061000Y-89000000D03*
%TD*%
D12*
%TO.C,U7*%
X131230000Y-80850000D03*
X127730000Y-80850000D03*
X124230000Y-80850000D03*
%TD*%
D13*
%TO.C,U1*%
X191464000Y-110800000D03*
X191464000Y-113340000D03*
D14*
X236454000Y-106990000D03*
X236454000Y-109530000D03*
X236454000Y-112070000D03*
X236454000Y-114610000D03*
X236454000Y-117150000D03*
D13*
X203704000Y-110888400D03*
X205704000Y-110888400D03*
X205704000Y-108888400D03*
X203704000Y-108888400D03*
X205704000Y-106888400D03*
D15*
X203704000Y-106888400D03*
D14*
X231374000Y-119690000D03*
X233914000Y-119690000D03*
X236454000Y-119690000D03*
X238994000Y-119690000D03*
X228834000Y-119690000D03*
X226294000Y-119690000D03*
X223754000Y-119690000D03*
X241534000Y-119690000D03*
X244074000Y-119690000D03*
X246614000Y-119690000D03*
X249154000Y-119690000D03*
X249154000Y-104450000D03*
X246614000Y-104450000D03*
X244074000Y-104450000D03*
X241534000Y-104450000D03*
X238994000Y-104450000D03*
X236454000Y-104450000D03*
X233914000Y-104450000D03*
X231374000Y-104450000D03*
X228834000Y-104450000D03*
X226294000Y-104450000D03*
X221214000Y-119690000D03*
X218674000Y-119690000D03*
X216134000Y-119690000D03*
X213594000Y-119690000D03*
X211054000Y-119690000D03*
X208514000Y-119690000D03*
X205974000Y-119690000D03*
X203434000Y-119690000D03*
X200894000Y-119690000D03*
X198354000Y-119690000D03*
X195814000Y-119690000D03*
X193274000Y-119690000D03*
D16*
X190734000Y-119690000D03*
D14*
X223754000Y-104450000D03*
X221214000Y-104450000D03*
X218674000Y-104450000D03*
X216134000Y-104450000D03*
X213594000Y-104450000D03*
X211054000Y-104450000D03*
X208514000Y-104450000D03*
X205974000Y-104450000D03*
X203434000Y-104450000D03*
X200894000Y-104450000D03*
X198354000Y-104450000D03*
X195814000Y-104450000D03*
X193274000Y-104450000D03*
X190734000Y-104450000D03*
D16*
X197033200Y-116639200D03*
D14*
X199573200Y-116639200D03*
X202113200Y-116639200D03*
X204653200Y-116639200D03*
X207193200Y-116639200D03*
X193274000Y-106990000D03*
%TD*%
D17*
%TO.C,D2*%
X166320000Y-120494000D03*
D18*
X176480000Y-120494000D03*
%TD*%
%TO.C,D1*%
X156210000Y-116840000D03*
D17*
X166370000Y-116840000D03*
%TD*%
%TO.C,D3*%
X139042000Y-107820000D03*
D18*
X128882000Y-107820000D03*
%TD*%
D19*
%TO.C,J1*%
X143510000Y-83140000D03*
X143510000Y-85680000D03*
X146050000Y-83140000D03*
X146050000Y-85680000D03*
X148590000Y-83140000D03*
X148590000Y-85680000D03*
X151130000Y-83140000D03*
X151130000Y-85680000D03*
X153670000Y-83140000D03*
X153670000Y-85680000D03*
X156210000Y-83140000D03*
X156210000Y-85680000D03*
X158750000Y-83140000D03*
X158750000Y-85680000D03*
X161290000Y-83140000D03*
X161290000Y-85680000D03*
X163830000Y-83140000D03*
X163830000Y-85680000D03*
X166370000Y-83140000D03*
X166370000Y-85680000D03*
%TD*%
D20*
%TO.C,H1*%
X124000000Y-126000000D03*
%TD*%
%TO.C,H2*%
X255000000Y-98000000D03*
%TD*%
%TO.C,H3*%
X124000000Y-98000000D03*
%TD*%
%TO.C,H4*%
X255000000Y-126000000D03*
%TD*%
D21*
%TO.C,U5*%
X132010000Y-118550000D03*
X135510000Y-118550000D03*
X139010000Y-118550000D03*
X142510000Y-118550000D03*
X146010000Y-118550000D03*
X149510000Y-118550000D03*
%TD*%
D22*
%TO.C,U2*%
X168536920Y-111634340D03*
X171076920Y-111634340D03*
D23*
X173616920Y-111634340D03*
D24*
X171076920Y-127434340D03*
%TD*%
D22*
%TO.C,U3*%
X156204920Y-111686340D03*
X158744920Y-111686340D03*
D23*
X161284920Y-111686340D03*
D24*
X158744920Y-127486340D03*
%TD*%
%TO.C,U4*%
X133967080Y-97173660D03*
D23*
X131427080Y-112973660D03*
D22*
X133967080Y-112973660D03*
X136507080Y-112973660D03*
%TD*%
D24*
%TO.C,U6*%
X146003080Y-97109660D03*
D23*
X143463080Y-112909660D03*
D22*
X146003080Y-112909660D03*
X148543080Y-112909660D03*
%TD*%
M02*
